<svg width="1069" height="332" viewBox="0 0 1069 332" fill="none" xmlns="http://www.w3.org/2000/svg">
<g clip-path="url(#clip0_1228_19)">
<path d="M93.1038 272.541L119.013 84.2841H125.332L116.801 158.311L103.847 272.541H155.664L175.255 158.311L185.366 84.2841H192.317L166.408 272.541H210.327L241.291 49.1853H165.145L142.71 198.834L137.338 237.443H131.967L137.338 198.834L156.296 49.1853H80.1493L49.1851 272.541H93.1038ZM281.599 275.732C317.935 275.732 334.68 254.992 339.104 222.446L363.117 49.1853H312.563L288.55 220.85C287.918 226.275 286.654 227.87 284.127 227.87C281.283 227.87 279.387 226.913 280.335 220.85L304.348 49.1853H253.794L231.045 211.597C225.355 253.078 238.628 275.732 281.599 275.732ZM444.216 272.541L487.819 49.1853H433.789L409.46 209.683L405.668 237.443H399.349L403.141 209.683L423.994 49.1853H369.965L351.955 272.541H444.216Z" fill="#1C1917"/>
<path d="M537.446 270.199C530.232 270.199 523.674 268.691 517.772 265.674C511.87 262.658 507.017 258.329 503.213 252.69C497.442 244.295 494.557 233.475 494.557 220.227C494.557 206.98 497.442 196.159 503.213 187.765C507.017 182.125 511.87 177.797 517.772 174.78C523.674 171.763 530.232 170.255 537.446 170.255C546.103 170.255 553.382 172.682 559.284 177.535C565.187 182.256 569.449 189.273 572.072 198.586H575.024L570.105 173.01V129.727H588.795V267.445H570.105L575.024 241.869H572.072C569.449 251.181 565.187 258.264 559.284 263.117C553.382 267.839 546.103 270.199 537.446 270.199ZM513.837 220.227C513.837 229.54 515.87 237.016 519.936 242.656C524.92 249.869 532.331 253.476 542.168 253.476C552.005 253.476 559.415 249.869 564.4 242.656C568.465 237.016 570.499 229.54 570.499 220.227C570.499 210.915 568.465 203.439 564.4 197.799C559.415 190.585 552.005 186.978 542.168 186.978C532.331 186.978 524.92 190.585 519.936 197.799C515.87 203.439 513.837 210.915 513.837 220.227ZM614.276 173.01H632.967V267.445H614.276V173.01ZM613.096 135.235H634.344V158.451H613.096V135.235ZM695.902 305.219C681.995 305.219 671.31 302.006 663.832 295.579C656.356 289.152 652.29 279.774 651.634 267.445H670.326C670.978 274.265 673.406 279.446 677.605 282.988C681.798 286.66 687.897 288.496 695.902 288.496C704.295 288.496 710.787 286.07 715.38 281.217C720.101 276.495 722.462 269.74 722.462 260.953V258.788L728.955 233.015H726.004C720.753 252.034 709.871 261.543 693.345 261.543C686.262 261.543 679.831 260.1 674.064 257.215C668.291 254.329 663.57 250.263 659.898 245.017C654.389 237.016 651.634 227.31 651.634 215.899C651.634 204.488 654.389 194.782 659.898 186.781C663.57 181.535 668.291 177.469 674.064 174.583C679.831 171.698 686.262 170.255 693.345 170.255C709.871 170.255 720.753 179.764 726.004 198.783H728.955L722.462 173.01H741.153V254.657C741.153 288.365 726.065 305.219 695.902 305.219ZM670.916 215.899C670.916 223.506 672.748 229.999 676.425 235.376C678.651 238.655 681.54 241.148 685.082 242.852C688.623 244.557 692.558 245.41 696.886 245.41C701.214 245.41 705.149 244.557 708.69 242.852C712.232 241.148 715.115 238.655 717.347 235.376C721.018 229.999 722.856 223.506 722.856 215.899C722.856 208.292 721.018 201.799 717.347 196.422C715.115 193.143 712.232 190.65 708.69 188.946C705.149 187.241 701.214 186.388 696.886 186.388C692.558 186.388 688.623 187.241 685.082 188.946C681.54 190.65 678.651 193.143 676.425 196.422C672.748 201.799 670.916 208.292 670.916 215.899ZM765.782 173.01H784.473V267.445H765.782V173.01ZM764.602 135.235H785.85V158.451H764.602V135.235ZM847.602 270.199C837.113 270.199 829.372 267.511 824.386 262.133C819.406 256.624 816.91 248.295 816.91 237.147V189.732H797.236V173.01H816.91V155.106L835.601 145.859V173.01H877.9V189.732H835.601V237.147C835.601 242.525 836.584 246.591 838.552 249.345C840.654 252.099 843.538 253.476 847.208 253.476C851.537 253.476 854.623 252.034 856.455 249.148C858.293 246.131 859.209 241.213 859.209 234.393V221.014H877.9V234.589C877.9 245.869 875.281 254.657 870.03 260.953C864.786 267.117 857.31 270.199 847.602 270.199ZM919.179 270.199C910.651 270.199 903.697 267.511 898.324 262.133C893.467 257.28 891.045 250.985 891.045 243.246C891.045 235.114 893.405 228.687 898.127 223.965C903.765 218.326 912.489 215.178 924.294 214.522L950.854 212.948V205.472C950.854 199.7 949.015 195.175 945.345 191.897C941.804 188.618 936.492 186.978 929.409 186.978C920.617 186.978 914.912 189.076 912.293 193.274C909.667 197.471 908.358 201.34 908.358 204.882V205.865H889.077V204.882C889.077 201.603 889.796 197.471 891.241 192.487C892.815 187.372 896.553 182.387 902.456 177.535C908.487 172.682 917.537 170.255 929.606 170.255C942.72 170.255 952.624 173.337 959.314 179.502C966.132 185.667 969.544 194.323 969.544 205.472V267.445H950.264L954.789 241.869H951.837C949.477 251.443 945.603 258.592 940.23 263.314C934.979 267.904 927.964 270.199 919.179 270.199ZM910.325 243.049C910.325 246.066 911.309 248.558 913.276 250.525C915.637 252.886 919.111 254.067 923.703 254.067C929.341 254.067 934.131 252.69 938.066 249.935C942.129 247.05 945.21 243.574 947.312 239.508C949.409 235.442 950.589 231.507 950.854 227.703L927.048 230.064C920.617 230.72 916.092 232.359 913.473 234.983C911.37 237.081 910.325 239.77 910.325 243.049ZM993.233 129.727H1011.92V267.445H993.233V129.727Z" fill="#1C1917"/>
</g>
<defs>
<clipPath id="clip0_1228_19">
<rect width="983.704" height="258.222" fill="white" transform="translate(49.1851 49.1853)"/>
</clipPath>
</defs>
</svg>
